<svg width="50" height="50" viewBox="0 0 100 100" fill="none" xmlns="http://www.w3.org/2000/svg">
    <path d="M12.5 25H20.8333H87.5" stroke="#E85A4F" stroke-width="5" stroke-linecap="round" stroke-linejoin="round"/>
    <path d="M79.1663 25.0002V83.3335C79.1663 85.5436 78.2884 87.6632 76.7256 89.226C75.1628 90.7889 73.0431 91.6668 70.833 91.6668H29.1663C26.9562 91.6668 24.8366 90.7889 23.2738 89.226C21.711 87.6632 20.833 85.5436 20.833 83.3335V25.0002M33.333 25.0002V16.6668C33.333 14.4567 34.211 12.3371 35.7738 10.7743C37.3366 9.21147 39.4562 8.3335 41.6663 8.3335H58.333C60.5431 8.3335 62.6628 9.21147 64.2256 10.7743C65.7884 12.3371 66.6663 14.4567 66.6663 16.6668V25.0002" stroke="#E85A4F" stroke-width="5" stroke-linecap="round" stroke-linejoin="round"/>
    <path d="M41.667 45.8335V70.8335" stroke="#E85A4F" stroke-width="5" stroke-linecap="round" stroke-linejoin="round"/>
    <path d="M58.333 45.8335V70.8335" stroke="#E85A4F" stroke-width="5" stroke-linecap="round" stroke-linejoin="round"/>
</svg>