<svg width="318" height="232" viewBox="0 0 318 232" fill="none" xmlns="http://www.w3.org/2000/svg">
<path fill-rule="evenodd" clip-rule="evenodd" d="M244.254 91.0296L157.515 9.13679L71.7623 91.0141C70.1645 92.5397 67.6325 92.4811 66.107 90.8834C64.5814 89.2856 64.6399 86.7536 66.2377 85.228L154.051 1.38369C155.975 -0.45373 159.002 -0.462236 160.936 1.36437L249.746 85.2126C251.352 86.7292 251.425 89.2608 249.909 90.8671C248.392 92.4734 245.86 92.5462 244.254 91.0296ZM95 91.6211C95 89.4119 93.2091 87.6211 91 87.6211C88.7909 87.6211 87 89.4119 87 91.6211V171.621C87 174.382 89.2386 176.621 92 176.621H223.5C226.261 176.621 228.5 174.382 228.5 171.621V91.6211C228.5 89.4119 226.709 87.6211 224.5 87.6211C222.291 87.6211 220.5 89.4119 220.5 91.6211V168.621H95V91.6211ZM120 108.621C125.036 108.621 129.348 105.519 131.128 101.121H148.84L160.554 129.055C161.333 130.912 163.151 132.121 165.165 132.121H181.5C181.771 132.121 182.036 132.094 182.292 132.043C184.272 135.946 188.324 138.621 193 138.621C199.627 138.621 205 133.248 205 126.621C205 119.994 199.627 114.621 193 114.621C187.23 114.621 182.411 118.694 181.261 124.121H167.16L155.446 96.1874C154.667 94.3298 152.849 93.1211 150.835 93.1211H131.482C129.984 88.201 125.41 84.6211 120 84.6211C113.373 84.6211 108 89.9937 108 96.6211C108 103.248 113.373 108.621 120 108.621Z" fill="#555555"/>
<path d="M0.999999 231.446C0.447714 231.446 0 230.998 0 230.446V200.555C0 200.003 0.447715 199.555 1 199.555H8.47292C9.0252 199.555 9.47292 200.003 9.47292 200.555V230.446C9.47292 230.998 9.0252 231.446 8.47292 231.446H0.999999ZM3.91873 218.597V212.127H27.0074V218.597H3.91873ZM22.4532 231.446C21.9009 231.446 21.4532 230.998 21.4532 230.446V200.555C21.4532 200.003 21.9009 199.555 22.4532 199.555H29.9262C30.4784 199.555 30.9262 200.003 30.9262 200.555V230.446C30.9262 230.998 30.4784 231.446 29.9262 231.446H22.4532Z" fill="#555555"/>
<path d="M35.867 214.946C35.867 212.357 36.3083 210.047 37.1909 208.013C38.1088 205.979 39.3621 204.254 40.9507 202.836C42.5394 201.419 44.3752 200.341 46.4581 199.601C48.5764 198.831 50.8182 198.446 53.1835 198.446C55.5842 198.446 57.826 198.831 59.9089 199.601C61.9918 200.341 63.8276 201.419 65.4163 202.836C67.0049 204.254 68.2406 205.979 69.1232 208.013C70.0411 210.047 70.5 212.357 70.5 214.946C70.5 217.534 70.0411 219.845 69.1232 221.878C68.2406 223.912 67.0049 225.638 65.4163 227.055C63.8276 228.472 61.9918 229.566 59.9089 230.336C57.826 231.076 55.6018 231.446 53.2365 231.446C50.8358 231.446 48.5764 231.076 46.4581 230.336C44.3752 229.566 42.5394 228.472 40.9507 227.055C39.3621 225.638 38.1088 223.912 37.1909 221.878C36.3083 219.845 35.867 217.534 35.867 214.946ZM44.4988 214.946C44.4988 216.61 44.7106 218.058 45.1342 219.29C45.5932 220.523 46.211 221.555 46.9877 222.387C47.7644 223.219 48.6823 223.835 49.7414 224.236C50.8005 224.636 51.9479 224.836 53.1835 224.836C54.4191 224.836 55.5665 224.636 56.6256 224.236C57.6847 223.835 58.6026 223.219 59.3793 222.387C60.156 221.555 60.7562 220.523 61.1798 219.29C61.6388 218.058 61.8683 216.61 61.8683 214.946C61.8683 213.282 61.6388 211.834 61.1798 210.601C60.7562 209.369 60.156 208.336 59.3793 207.505C58.6026 206.673 57.6847 206.056 56.6256 205.656C55.5665 205.255 54.4191 205.055 53.1835 205.055C51.9479 205.055 50.8005 205.255 49.7414 205.656C48.6823 206.056 47.7644 206.673 46.9877 207.505C46.211 208.336 45.5932 209.369 45.1342 210.601C44.7106 211.834 44.4988 213.282 44.4988 214.946Z" fill="#555555"/>
<path d="M76.3302 231.446C75.7779 231.446 75.3302 230.999 75.3302 230.446V200.555C75.3302 200.003 75.7779 199.555 76.3302 199.555H84.4324V230.446C84.4324 230.999 83.9847 231.446 83.4324 231.446H76.3302ZM82.143 199.555H89.2646C89.6664 199.555 90.0292 199.796 90.1856 200.166L96.8647 215.963V231.929H92.3833C91.9394 231.929 91.5486 231.637 91.4237 231.211L82.143 199.555ZM96.0174 231.929V215.963L102.696 200.166C102.853 199.796 103.216 199.555 103.617 199.555H110.739L100.472 231.238C100.338 231.65 99.9541 231.929 99.5206 231.929H96.0174ZM107.45 231.446C106.897 231.446 106.45 230.999 106.45 230.446V199.555H114.552C115.104 199.555 115.552 200.003 115.552 200.555V230.446C115.552 230.999 115.104 231.446 114.552 231.446H107.45Z" fill="#555555"/>
<path d="M122.529 231.446C121.976 231.446 121.529 230.999 121.529 230.446V200.555C121.529 200.003 121.976 199.555 122.529 199.555H132.002V231.446H122.529ZM127.447 231.446V224.976H149.477C150.029 224.976 150.477 225.423 150.477 225.976V230.446C150.477 230.999 150.029 231.446 149.477 231.446H127.447ZM127.447 218.412V212.312H145.723C146.276 212.312 146.723 212.759 146.723 213.312V217.412C146.723 217.965 146.276 218.412 145.723 218.412H127.447ZM127.447 206.026V199.555H149.212C149.765 199.555 150.212 200.003 150.212 200.555V205.026C150.212 205.578 149.765 206.026 149.212 206.026H127.447Z" fill="#555555"/>
<path d="M156.143 231.446C155.591 231.446 155.143 230.999 155.143 230.446V200.555C155.143 200.003 155.591 199.555 156.143 199.555H165.616V231.446H156.143ZM161.062 231.446V225.253H171.282C172.695 225.253 173.824 224.96 174.672 224.375C175.554 223.758 175.995 222.865 175.995 221.694C175.995 220.523 175.554 219.645 174.672 219.06C173.824 218.443 172.695 218.135 171.282 218.135H161.062V213.513H172.077C174.583 213.513 176.772 213.898 178.643 214.669C180.514 215.408 181.979 216.471 183.039 217.858C184.098 219.214 184.627 220.816 184.627 222.665C184.627 224.513 184.062 226.1 182.933 227.425C181.838 228.719 180.338 229.721 178.431 230.429C176.56 231.107 174.442 231.446 172.077 231.446H161.062ZM161.062 216.286V212.404H170.223C171.565 212.404 172.642 212.127 173.454 211.572C174.266 210.987 174.672 210.155 174.672 209.076C174.672 207.998 174.266 207.181 173.454 206.627C172.642 206.041 171.565 205.748 170.223 205.748H161.062V199.555H170.753C173.048 199.555 175.13 199.909 177.002 200.618C178.873 201.296 180.338 202.267 181.397 203.53C182.491 204.793 183.039 206.318 183.039 208.106C183.039 209.893 182.491 211.403 181.397 212.635C180.338 213.837 178.873 214.746 177.002 215.362C175.166 215.978 173.083 216.286 170.753 216.286H161.062Z" fill="#555555"/>
<path d="M191.792 231.446C191.24 231.446 190.792 230.999 190.792 230.446V200.555C190.792 200.003 191.24 199.555 191.792 199.555H200.265V230.446C200.265 230.999 199.817 231.446 199.265 231.446H191.792ZM195.711 220.354V214.345H204.872C206.602 214.345 207.996 214.006 209.056 213.328C210.115 212.65 210.644 211.603 210.644 210.185C210.644 208.768 210.115 207.72 209.056 207.043C207.996 206.365 206.602 206.026 204.872 206.026H195.711V199.555H205.666C208.244 199.555 210.556 199.986 212.604 200.849C214.651 201.681 216.275 202.898 217.475 204.501C218.676 206.072 219.276 207.967 219.276 210.185C219.276 212.312 218.676 214.13 217.475 215.639C216.275 217.149 214.651 218.32 212.604 219.152C210.556 219.953 208.244 220.354 205.666 220.354H195.711ZM202.966 218.043H211.386L219.297 229.891C219.74 230.555 219.264 231.446 218.465 231.446H211.53C211.178 231.446 210.851 231.261 210.671 230.959L202.966 218.043Z" fill="#555555"/>
<path d="M226 231.446C225.287 231.446 224.803 230.72 225.077 230.062L237.535 200.17C237.691 199.798 238.055 199.555 238.458 199.555H242.24L242.664 206.765L233.536 230.801C233.388 231.19 233.016 231.446 232.601 231.446H226ZM233.45 225.16V219.291H250.713V225.16H233.45ZM240.863 206.765L241.075 199.555H245.28C245.684 199.555 246.048 199.798 246.204 200.17L258.662 230.062C258.936 230.72 258.452 231.446 257.739 231.446H250.926C250.511 231.446 250.139 231.19 249.992 230.801L240.863 206.765Z" fill="#555555"/>
<path d="M263.5 231.446C262.948 231.446 262.5 230.999 262.5 230.446V223.9C262.5 223.348 262.948 222.9 263.5 222.9H281.505C282.057 222.9 282.505 223.348 282.505 223.9V230.446C282.505 230.999 282.057 231.446 281.505 231.446H263.5ZM262.5 208.101C261.948 208.101 261.5 207.654 261.5 207.101V200.555C261.5 200.003 261.948 199.555 262.5 199.555H281.505C282.057 199.555 282.505 200.003 282.505 200.555V207.101C282.505 207.654 282.057 208.101 281.505 208.101H262.5ZM268.266 231.446V199.555H276.739V231.446H268.266Z" fill="#555555"/>
<path d="M287.809 231.446C287.257 231.446 286.809 230.999 286.809 230.446V200.555C286.809 200.003 287.257 199.555 287.809 199.555H295.435V230.446C295.435 230.999 294.987 231.446 294.435 231.446H287.809ZM289.775 199.555H297.08C297.442 199.555 297.775 199.75 297.952 200.065L315.617 231.446H308.311C307.95 231.446 307.617 231.251 307.44 230.937L289.775 199.555ZM309.374 231.446V200.555C309.374 200.003 309.822 199.555 310.374 199.555H317C317.552 199.555 318 200.003 318 200.555V230.446C318 230.999 317.552 231.446 317 231.446H309.374Z" fill="#555555"/>
</svg>
