<svg width="139" height="166" viewBox="0 0 139 166" fill="none" xmlns="http://www.w3.org/2000/svg">
    <path d="M9.67452 0.533661C6.36949 1.47412 3.17194 3.97304 1.66721 6.82129C-0.106225 10.1532 0.00125617 4.67166 0.00125617 82.6489C0.00125617 160.626 -0.106225 155.145 1.66721 158.477C2.6614 160.357 5.29468 162.91 7.14872 163.797C10.1582 165.194 6.82628 165.14 69.4069 165.14H127.661L129.704 164.469C134.11 162.991 137.2 159.632 138.248 155.145C138.598 153.667 138.651 144.182 138.651 82.6489C138.651 20.4445 138.598 11.631 138.248 10.1263C137.147 5.47777 133.546 1.79655 128.844 0.533661C126.936 -0.0037384 11.5286 0.0231323 9.67452 0.533661ZM129.838 3.8387C133.116 5.39716 135.158 8.13792 135.723 11.7654C135.884 12.8402 135.964 35.3037 135.911 71.9008L135.83 130.343L135.239 131.768C134.11 134.508 132.095 136.577 129.435 137.706L127.769 138.405H69.3263H10.8837L9.35208 137.787C6.47697 136.631 4.51545 134.616 3.30629 131.553C2.84949 130.397 2.82262 127.2 2.74201 71.9008C2.68827 35.3037 2.76888 12.8402 2.93011 11.7654C3.60186 7.41243 6.79941 3.9193 10.8568 3.1132C11.448 3.00572 38.0763 2.92511 69.9981 2.95198L128.038 2.97885L129.838 3.8387ZM7.01437 139.775C10.0776 141.307 6.31574 141.226 69.3263 141.226C132.283 141.226 128.575 141.307 131.611 139.775C132.31 139.426 133.519 138.566 134.272 137.894C135.024 137.222 135.696 136.658 135.776 136.658C136.045 136.658 135.964 152.055 135.696 153.667C135.131 157.214 133.062 159.928 129.838 161.459L128.038 162.319H69.3263H10.615L8.81467 161.459C5.59025 159.928 3.52125 157.214 2.95698 153.667C2.79575 152.807 2.68827 148.561 2.68827 144.208V136.336L4.193 137.733C5.02598 138.485 6.31575 139.399 7.01437 139.775Z" fill="#6E9EF9"/>
    <path d="M33.6427 15.7961C33.4546 15.9842 33.3202 16.8441 33.3202 17.8114V19.4773L32.326 19.6386C29.6121 20.0685 28.403 20.4715 25.7966 21.7076C23.3245 22.8898 22.7065 23.3466 20.53 25.5231C18.4342 27.619 17.8968 28.3714 16.8488 30.521C15.6397 32.993 14.7798 35.7875 14.7798 37.2923C14.7798 38.0178 14.7529 38.0446 13.1676 38.0446C11.9047 38.0446 11.4479 38.1521 11.018 38.582C9.72822 39.8718 10.6955 41.0003 13.1139 41.0003C14.7529 41.0003 14.7798 41.0003 14.7798 41.7527C14.7798 43.2306 15.8546 46.6699 16.9563 48.8196C18.2461 51.2916 21.0943 54.4892 23.3514 56.0208C25.9578 57.7942 28.7523 58.869 32.1917 59.4064L33.3202 59.5945V61.2605C33.3202 63.0339 33.6158 63.5713 34.5563 63.5713C35.6042 63.5713 36.0072 62.8727 36.0072 61.153V59.5676L37.297 59.3795C45.8417 58.1435 52.9355 51.2916 54.3058 42.9081L54.6283 41.0003H56.1868C57.799 41.0003 58.8469 40.4361 58.8469 39.5762C58.8469 38.6358 58.1214 38.2058 56.348 38.0984L54.6014 37.9909L54.4402 36.5936C54.1446 34.5246 53.0429 31.4077 51.8607 29.3924C48.7168 24.1259 43.6115 20.7402 37.0283 19.6386L36.0072 19.4773V17.7576C36.0072 16.3335 35.9266 15.9842 35.4967 15.7424C34.7981 15.3931 34.0457 15.3931 33.6427 15.7961ZM33.3202 25.3888V28.3176L32.0842 28.6132C27.9731 29.6611 24.3456 33.2886 23.7545 36.9161L23.5664 38.0446H20.5032H17.44L17.6281 36.7549C18.3267 31.8914 21.9273 26.8129 26.3609 24.4752C28.5105 23.3466 31.0631 22.5137 32.4604 22.4868L33.3202 22.4599V25.3888ZM38.9361 22.8898C45.4924 24.5021 50.4634 30.0642 51.6994 37.1579L51.8607 38.0446H48.7975H45.7611L45.4387 36.5936C44.6326 32.9662 41.1663 29.6074 37.2433 28.6132L36.0072 28.3176V25.3888C36.0072 22.0031 35.846 22.1375 38.9361 22.8898ZM33.4546 31.9182C33.6695 32.4019 33.9382 32.5362 34.6637 32.5362C35.3892 32.5362 35.6579 32.4019 35.8729 31.9182C36.1953 31.1659 36.6253 31.1659 38.2912 31.972C39.7959 32.6706 41.7037 34.5784 42.268 35.9756C43.0472 37.7759 43.0472 37.8834 42.1874 38.3671C41.6231 38.6895 41.3813 39.0388 41.3813 39.5225C41.3813 40.0061 41.6231 40.3555 42.1874 40.6779C43.0741 41.1884 43.0472 41.3497 42.1337 43.338C41.5156 44.6547 39.7422 46.3744 38.1837 47.1536C36.8134 47.8522 36.0879 47.8791 35.8729 47.1805C35.5505 46.1325 33.6695 46.1325 33.4008 47.1805C33.2128 47.8791 32.541 47.8522 31.0363 47.1536C29.3972 46.3744 27.7581 44.7353 26.9789 43.0693C26.1996 41.3765 26.1728 41.081 26.8714 40.866C28.1074 40.4629 28.188 38.797 26.9789 38.2596C26.1728 37.8834 26.2534 37.2385 27.3013 35.4382C28.1612 33.9335 29.3703 32.7781 30.875 31.9988C32.4335 31.1927 33.1321 31.1659 33.4546 31.9182ZM23.7545 42.1289C24.3456 45.7564 28.4567 49.8138 32.326 50.5393L33.3202 50.7273V53.6562V56.585H32.5679C31.1975 56.585 28.6986 55.7789 26.5221 54.6504C21.9004 52.2321 18.4879 47.4761 17.6012 42.1289L17.4131 41.0003H20.5032H23.5664L23.7545 42.1289ZM51.6994 41.9945C50.6515 47.7985 47.239 52.4202 42.0262 55.0534C40.5483 55.8058 37.8344 56.585 36.7059 56.585H36.0072V53.6831V50.7542L37.6463 50.2974C41.4888 49.2495 45.0088 45.5414 45.5999 41.9945L45.7611 41.0003H48.8243H51.8875L51.6994 41.9945Z" fill="#6E9EF9"/>
    <path d="M103.129 15.7692C102.753 15.9842 102.646 16.4141 102.646 17.7576V19.4773L101.651 19.6385C95.0413 20.7402 89.936 24.1259 86.7922 29.3924C85.6367 31.4077 84.5082 34.5246 84.2395 36.5936L84.0514 37.9909L82.3048 38.0984C80.5314 38.2058 79.8059 38.6358 79.8059 39.5762C79.8059 40.4361 80.8538 41.0003 82.4392 41.0003H83.9977L84.3201 42.9081C85.7711 51.3454 92.8111 58.1435 101.383 59.3795L102.646 59.5676V61.153C102.646 62.8727 103.049 63.5713 104.097 63.5713C105.037 63.5713 105.333 63.0339 105.333 61.2605V59.5945L106.488 59.4064C108.423 59.1108 110.733 58.466 112.023 57.8479C117.585 55.2953 121.911 50.2437 123.336 44.6009C123.631 43.4455 123.873 42.1826 123.873 41.7527C123.873 41.0003 123.873 41.0003 125.566 41.0003C127.366 41.0003 128.172 40.5435 128.172 39.5762C128.172 38.6089 127.178 38.0446 125.485 38.0446C123.9 38.0446 123.873 38.0178 123.873 37.2923C123.873 35.7875 123.013 32.993 121.804 30.521C120.756 28.3714 120.219 27.619 118.123 25.5231C115.946 23.3466 115.328 22.8898 112.856 21.7076C110.25 20.4715 109.041 20.0685 106.354 19.6385L105.333 19.4773V17.8114C105.333 16.8441 105.198 15.9842 105.01 15.7961C104.607 15.3931 103.747 15.3931 103.129 15.7692ZM102.646 25.3888V28.3176L101.41 28.6132C97.4865 29.6074 94.0202 32.9662 93.2141 36.5936L92.8917 38.0446H89.8554H86.819L86.9534 37.1579C87.8938 31.757 90.6615 27.5921 95.2025 24.7976C97.0028 23.6959 100.388 22.4868 101.786 22.4599H102.646V25.3888ZM108.396 22.8898C114.845 24.5558 119.923 30.1717 121.052 36.8892L121.24 38.0446H118.15H115.086L114.898 36.9161C114.307 33.2886 110.68 29.6611 106.569 28.6132L105.333 28.3176V25.3888V22.4599H106.031C106.407 22.4599 107.482 22.648 108.396 22.8898ZM102.78 31.9182C102.995 32.4019 103.264 32.5362 103.989 32.5362C104.715 32.5362 104.983 32.4019 105.198 31.9182C105.548 31.1659 106.112 31.1659 107.724 31.9988C109.256 32.7781 110.465 33.9066 111.351 35.4382C112.346 37.1579 112.48 37.964 111.808 38.179C110.545 38.582 110.465 40.248 111.674 40.7854C112.48 41.1616 112.48 41.3228 111.674 43.0156C110.922 44.6816 109.202 46.4012 107.617 47.1536C106.112 47.8522 105.44 47.8791 105.252 47.1805C104.983 46.1325 103.102 46.1325 102.78 47.1805C102.565 47.8791 101.839 47.8522 100.469 47.1536C98.9106 46.3744 97.1372 44.6547 96.5192 43.338C95.6056 41.3497 95.5787 41.1884 96.4654 40.6779C97.0297 40.3555 97.2715 40.0061 97.2715 39.5225C97.2715 39.0388 97.0297 38.6895 96.4654 38.3671C95.6056 37.8834 95.6056 37.7759 96.3848 35.9756C96.9491 34.5784 98.8569 32.6706 100.362 31.972C102.028 31.1659 102.457 31.1659 102.78 31.9182ZM93.0529 41.9945C93.644 45.5414 97.164 49.2495 101.006 50.2974L102.646 50.7542V53.7099V56.6657L101.168 56.4776C96.9222 55.9939 92.1662 52.8232 89.4523 48.6583C88.4312 47.1267 87.3296 44.1979 86.9534 41.9945L86.7653 41.0003H89.8285H92.8917L93.0529 41.9945ZM121.052 42.1289C120.165 47.4761 116.752 52.2321 112.131 54.6504C109.954 55.7789 107.455 56.585 106.085 56.585H105.333V53.6562V50.7273L106.354 50.5393C110.196 49.8138 114.307 45.7564 114.898 42.1289L115.086 41.0003H118.15H121.24L121.052 42.1289Z" fill="#6E9EF9"/>
    <path d="M33.6429 78.135C33.4548 78.3231 33.3205 79.1829 33.3205 80.0965V81.7625L31.3858 82.1118C24.8564 83.2672 19.6973 87.0828 16.7684 92.9136C15.8011 94.8482 14.78 98.2607 14.78 99.6311C14.78 100.383 14.78 100.383 13.0872 100.383C11.7706 100.383 11.2601 100.491 10.9376 100.867C9.8628 102.049 10.6689 103.124 12.6573 103.205C13.4634 103.259 14.2695 103.285 14.4576 103.312C14.6188 103.339 14.78 103.662 14.78 104.065C14.78 105.596 15.6399 108.391 16.8222 110.782C18.1119 113.389 20.5303 116.318 22.653 117.849C25.4206 119.811 28.8869 121.208 31.8426 121.584L33.1861 121.745L33.2667 123.492C33.3473 125.265 33.6966 125.91 34.6371 125.91C35.5776 125.91 35.8731 125.4 36.0075 123.572L36.1418 121.745L37.4853 121.584C45.627 120.563 52.6401 113.926 54.1986 105.731C54.4404 104.495 54.6823 103.42 54.7091 103.366C54.7629 103.312 55.5421 103.232 56.4557 103.178C58.2022 103.124 58.4172 103.017 58.6859 102.076C59.0084 101.055 58.041 100.383 56.2139 100.383H54.6554L54.3329 98.422C53.903 95.9768 52.5326 92.5374 51.1623 90.549C50.598 89.716 49.2276 88.2113 48.1528 87.1902C45.1433 84.3957 41.9727 82.8373 37.8078 82.1118L36.0075 81.7893V80.1234C36.0075 78.2962 35.7388 77.8125 34.664 77.8125C34.2878 77.8125 33.831 77.9469 33.6429 78.135ZM33.3205 87.7008V90.6296L31.9232 90.9521C30.096 91.3551 28.1345 92.4837 26.6298 93.9615C25.34 95.2782 23.6472 98.4757 23.6472 99.6311V100.383H20.5303H17.4133L17.6014 99.2281C18.5687 92.9404 23.2979 87.4321 29.3974 85.4437C30.4454 85.0944 31.762 84.8257 32.3263 84.7988H33.3205V87.7008ZM39.2588 85.2287C45.8688 87.1902 50.5711 92.5643 51.6997 99.4968L51.8609 100.383H48.7977H45.7614L45.5733 99.3624C44.9552 95.6275 40.871 91.5701 37.0285 90.8446L36.0075 90.6565V87.7276V84.7988H36.8942C37.3779 84.7988 38.4527 84.9869 39.2588 85.2287ZM33.4011 94.2033C33.6698 95.2513 35.5507 95.2513 35.8731 94.2033C36.0881 93.4779 36.8136 93.5316 38.4258 94.3377C40.0111 95.1438 41.4621 96.5679 42.1607 98.0727C42.9669 99.7923 43.1012 100.383 42.6444 100.383C42.0533 100.383 41.3278 101.351 41.4353 102.049C41.489 102.399 41.8383 102.802 42.2682 103.017C43.1012 103.42 43.0743 103.715 42.1339 105.569C41.3546 107.128 39.8768 108.606 38.3452 109.358C36.7061 110.191 36.115 110.245 35.9269 109.519C35.6313 108.364 33.6966 108.391 33.4011 109.546C33.213 110.218 32.6756 110.191 31.0365 109.412C28.1883 108.095 25.0176 103.071 27.006 103.071C27.5702 103.071 28.027 101.834 27.6777 101.19C27.5434 100.921 27.1672 100.598 26.8716 100.518C26.1461 100.276 26.1999 99.9536 27.1672 98.0189C28.027 96.2724 29.2362 95.0901 31.0365 94.2033C32.4337 93.5047 33.213 93.5047 33.4011 94.2033ZM23.8084 104.629C24.8295 108.606 28.0002 111.75 31.8426 112.609L33.1861 112.905L33.2667 115.968L33.3473 119.005L31.977 118.816C24.9101 117.876 18.8374 111.803 17.6014 104.495L17.4133 103.366L20.0735 103.285C21.5245 103.232 22.868 103.205 23.0829 103.232C23.2979 103.232 23.6203 103.823 23.8084 104.629ZM51.6459 104.307C51.5116 105.972 50.3293 109.116 49.147 110.997C47.8035 113.12 44.9015 115.861 42.8056 116.989C41.2203 117.822 37.7272 118.924 36.6255 118.924C36.0075 118.924 36.0075 118.87 36.0075 115.968V113.012L36.7598 112.851C41.1128 111.938 44.6597 108.525 45.5464 104.414C45.6539 103.903 45.842 103.42 45.9494 103.339C46.0838 103.259 47.4273 103.205 48.9589 103.232L51.7265 103.259L51.6459 104.307Z" fill="#6E9EF9"/>
    <path d="M102.968 78.135C102.78 78.3231 102.645 79.1829 102.645 80.0965V81.7625L100.334 82.2192C96.1157 83.0522 92.6495 84.9063 89.7206 87.9426C86.8186 90.9252 85.0183 94.472 84.3197 98.5026L83.9973 100.383H82.4388C81.2296 100.383 80.746 100.518 80.3161 100.948C80.0205 101.243 79.8324 101.673 79.913 101.915C79.9936 102.13 80.0742 102.399 80.0742 102.506C80.0742 102.882 81.3371 103.312 82.1164 103.205C83.7823 103.017 83.9704 103.178 84.4272 105.65C84.9109 108.23 86.4425 111.642 88.0815 113.872C91.1447 118.01 96.1695 120.966 101.167 121.584L102.511 121.745L102.645 123.572C102.78 125.4 103.075 125.91 104.016 125.91C104.956 125.91 105.305 125.265 105.386 123.492L105.467 121.745L106.81 121.584C111.056 121.074 114.79 119.166 118.122 115.834C120.165 113.792 120.729 113.012 121.804 110.863C123.013 108.391 123.873 105.596 123.873 104.065C123.873 103.662 124.034 103.339 124.222 103.312C124.383 103.312 125.216 103.259 126.022 103.205C127.527 103.097 128.172 102.667 128.172 101.727C128.172 100.84 127.285 100.383 125.539 100.383C123.899 100.383 123.873 100.383 123.873 99.6311C123.873 98.2607 122.852 94.8482 121.884 92.9136C121.024 91.2208 119.17 88.6144 117.988 87.4858C115.086 84.6644 111.485 82.8641 107.267 82.1118L105.332 81.7625V80.0965C105.332 78.2962 105.063 77.8125 103.989 77.8125C103.613 77.8125 103.156 77.9469 102.968 78.135ZM102.645 87.7276V90.6565L101.651 90.8446C97.7817 91.5701 93.6974 95.6275 93.0794 99.3624L92.8913 100.383H89.855C88.1622 100.383 86.7918 100.33 86.7918 100.222C86.7918 100.142 86.9799 99.2281 87.2217 98.1801C88.3771 93.0748 91.5747 88.8831 96.062 86.5991C98.131 85.5512 100.361 84.8257 101.651 84.8257L102.645 84.7988V87.7276ZM108.987 85.3631C115.194 87.244 120.084 92.8598 121.051 99.2281L121.239 100.383H118.122H115.005V99.6043C115.005 98.7444 113.42 95.4931 112.507 94.472C110.894 92.6717 108.422 91.2208 106.353 90.8446L105.332 90.6565V87.7276V84.7988H106.246C106.756 84.7988 107.992 85.0406 108.987 85.3631ZM104.042 94.9557C104.66 94.902 105.01 94.687 105.198 94.2571C105.52 93.5316 106.165 93.5047 107.589 94.2033C109.39 95.0632 110.626 96.2724 111.485 98.0189C112.453 99.9536 112.507 100.276 111.781 100.518C110.545 100.921 110.464 102.614 111.674 103.071C112.238 103.285 112.292 103.447 112.157 104.065C111.674 106.08 109.658 108.471 107.616 109.412C105.977 110.191 105.44 110.218 105.252 109.546C104.956 108.391 103.021 108.364 102.726 109.519C102.538 110.245 101.947 110.191 100.307 109.358C98.7759 108.606 97.298 107.128 96.5188 105.569C95.5783 103.715 95.5515 103.42 96.3844 103.017C96.8144 102.802 97.1637 102.399 97.2174 102.049C97.3249 101.351 96.5994 100.383 96.0082 100.383C95.5783 100.383 95.6858 99.8461 96.5188 98.0458C97.4324 96.0843 99.6357 94.2571 101.839 93.6659C102.403 93.5316 102.565 93.6122 102.833 94.2571C103.129 94.9288 103.29 95.0363 104.042 94.9557ZM92.7301 103.312C92.8107 103.339 93.0257 104.011 93.2137 104.817C93.6168 106.59 95.2559 109.17 96.8412 110.46C98.0504 111.427 100.603 112.744 101.355 112.744C102.565 112.744 102.645 112.932 102.645 115.995C102.645 118.87 102.645 118.924 102.027 118.924C100.925 118.924 97.4324 117.822 95.847 116.989C92.7301 115.323 89.3444 111.508 88.0278 108.203C87.4635 106.779 86.738 103.662 86.8993 103.393C86.9799 103.259 91.5209 103.205 92.7301 103.312ZM118.714 103.312L121.239 103.339L121.051 104.468C120.003 110.782 115.57 116.022 109.524 118.118C108.664 118.413 107.374 118.709 106.649 118.816L105.332 119.005V116.022C105.332 112.905 105.413 112.744 106.649 112.744C106.918 112.744 107.992 112.314 109.013 111.803C111.915 110.352 113.931 107.961 114.737 104.951C114.925 104.28 115.113 103.608 115.167 103.42C115.194 103.259 115.462 103.151 115.731 103.205C116 103.259 117.343 103.312 118.714 103.312Z" fill="#6E9EF9"/>
    <path d="M102.726 145.498C100.281 146.17 98.8564 146.895 97.4054 148.239C93.2674 152.054 96.0082 157.16 103.156 158.879C105.574 159.471 110.33 159.444 112.56 158.853C116.08 157.912 118.633 156.166 119.573 154.07C120.218 152.619 120.245 151.598 119.6 150.227C118.767 148.346 116.752 146.842 113.689 145.74C111.432 144.907 105.359 144.799 102.726 145.498ZM110.545 147.836C111.217 147.943 111.781 148.104 111.781 148.212C111.781 148.293 109.524 149.609 106.756 151.087C103.962 152.592 101.302 154.016 100.818 154.285L99.9312 154.795L99.152 153.908C96.5456 151.033 100.818 147.809 107.374 147.701C108.422 147.675 109.846 147.755 110.545 147.836ZM116.671 150.765C117.289 151.49 117.289 152.834 116.644 153.64C115.946 154.526 113.85 155.601 111.888 156.112C109.604 156.703 103.72 156.649 103.72 156.031C103.72 155.951 106.353 154.446 109.578 152.726C115.758 149.421 115.57 149.448 116.671 150.765Z" fill="#6E9EF9"/>
    <path d="M21.4974 150.98C20.6644 151.383 20.5032 152.377 21.1212 153.075C21.5511 153.559 22.0079 153.586 27.0595 153.586C32.1648 153.586 32.541 153.559 33.0515 153.049C33.8845 152.216 33.7233 151.517 32.5948 150.926C31.7618 150.496 22.3841 150.523 21.4974 150.98Z" fill="#6E9EF9"/>
    <path d="M44.4177 150.953C43.8266 151.248 43.6654 151.624 43.7997 152.511C43.9072 153.478 44.5789 153.586 50.1411 153.586C56.0256 153.586 56.4287 153.505 56.4287 152.108C56.4287 150.791 55.6763 150.63 50.1142 150.657C47.0241 150.657 44.767 150.791 44.4177 150.953Z" fill="#6E9EF9"/>
    <path d="M67.4455 150.98C66.5319 151.436 66.3975 152.592 67.2305 153.156C67.7411 153.505 68.7084 153.586 73.142 153.586C78.1129 153.586 78.4891 153.559 78.9997 153.049C79.6445 152.404 79.6714 152.001 79.1609 151.275C78.8116 150.791 78.3548 150.765 73.4375 150.684C69.5145 150.63 67.9291 150.711 67.4455 150.98Z" fill="#6E9EF9"/>
</svg>
