<?xml version="1.0" standalone="no"?>
<!DOCTYPE svg PUBLIC "-//W3C//DTD SVG 20010904//EN"
 "http://www.w3.org/TR/2001/REC-SVG-20010904/DTD/svg10.dtd">
<svg version="1.0" xmlns="http://www.w3.org/2000/svg"
 width="225.000000pt" height="225.000000pt" viewBox="0 0 225.000000 225.000000"
 preserveAspectRatio="xMidYMid meet">

<g transform="translate(0.000000,225.000000) scale(0.100000,-0.100000)"
fill="#000000" stroke="none">
<path d="M1219 1711 c-21 -22 -29 -39 -29 -66 0 -27 8 -44 29 -66 22 -21 39
-29 66 -29 27 0 44 8 66 29 21 22 29 39 29 66 0 27 -8 44 -29 66 -22 21 -39
29 -66 29 -27 0 -44 -8 -66 -29z m106 -26 c14 -13 25 -31 25 -40 0 -9 -11 -27
-25 -40 -13 -14 -31 -25 -40 -25 -21 0 -65 44 -65 65 0 9 11 27 25 40 13 14
31 25 40 25 9 0 27 -11 40 -25z" fill="#6E9EF9"/>
<path d="M846 1704 c-9 -8 -16 -24 -16 -34 0 -20 25 -50 41 -50 27 0 49 22 49
50 0 44 -44 64 -74 34z m44 -34 c0 -5 -7 -10 -15 -10 -8 0 -15 5 -15 10 0 6 7
10 15 10 8 0 15 -4 15 -10z" fill="#6E9EF9"/>
<path d="M1606 1669 c-35 -41 -34 -83 3 -120 60 -59 156 -23 156 59 0 58 -34
92 -91 92 -35 0 -47 -5 -68 -31z m106 -16 c26 -24 23 -69 -7 -89 -31 -20 -53
-15 -77 17 -17 23 -18 30 -8 50 23 43 59 52 92 22z" fill="#6E9EF9"/>
<path d="M986 1669 c-20 -16 -26 -29 -26 -58 0 -74 83 -109 135 -56 29 28 31
54 10 94 -24 46 -74 55 -119 20z m76 -21 c26 -22 29 -47 8 -68 -24 -24 -38
-25 -62 -3 -24 22 -23 49 4 67 27 19 30 19 50 4z" fill="#6E9EF9"/>
<path d="M726 1614 c-9 -8 -16 -22 -16 -29 0 -44 73 -61 91 -21 23 50 -36 90
-75 50z m44 -29 c0 -8 -4 -15 -10 -15 -5 0 -10 7 -10 15 0 8 5 15 10 15 6 0
10 -7 10 -15z" fill="#6E9EF9"/>
<path d="M1487 1542 c-18 -19 -22 -59 -9 -78 27 -42 95 -35 112 11 10 27 -1
62 -24 77 -20 14 -63 8 -79 -10z m68 -42 c0 -18 -6 -26 -23 -28 -27 -4 -40 22
-22 44 19 22 45 13 45 -16z" fill="#6E9EF9"/>
<path d="M733 1487 c-30 -26 -44 -32 -63 -27 -14 3 -35 4 -47 2 -32 -6 -71
-49 -75 -80 l-3 -27 -100 -3 c-74 -2 -104 -7 -117 -19 -41 -37 -6 -103 55
-103 l32 0 26 -164 c18 -109 35 -182 52 -220 45 -98 146 -188 232 -206 27 -5
31 -11 37 -53 8 -57 22 -77 54 -77 35 0 54 26 54 76 l0 44 255 0 255 0 0 -44
c0 -50 19 -76 54 -76 32 0 49 24 56 78 5 42 8 47 37 53 81 16 186 109 229 204
16 34 35 113 52 219 l27 166 33 0 c60 0 95 66 54 103 -16 15 -60 17 -362 19
l-344 3 -8 32 c-16 63 -95 101 -149 72 -15 -8 -25 -5 -47 11 -20 16 -38 21
-72 19 -28 -2 -57 3 -77 14 -50 26 -88 22 -130 -16z m134 -32 c26 -29 36 -31
53 -10 21 26 59 18 78 -15 19 -33 33 -37 51 -16 37 45 130 12 131 -46 0 -17
-21 -18 -300 -18 -293 0 -300 0 -300 20 0 48 65 76 106 45 29 -22 41 -18 47
14 7 36 51 63 87 55 14 -2 35 -16 47 -29z m1030 -146 c6 -6 9 -18 6 -25 -8
-21 -1548 -21 -1556 0 -3 7 0 19 6 25 16 16 1528 16 1544 0z m-97 -84 c0 -2
-11 -73 -25 -156 -30 -184 -57 -249 -130 -318 -88 -83 -74 -81 -522 -81 -441
0 -429 -2 -509 72 -51 47 -84 94 -103 148 -10 28 -60 301 -61 333 0 4 304 7
675 7 371 0 675 -2 675 -5z m-962 -637 c-2 -30 -8 -43 -18 -43 -10 0 -16 13
-18 43 -3 37 -1 42 18 42 19 0 21 -5 18 -42z m610 0 c-2 -30 -8 -43 -18 -43
-10 0 -16 13 -18 43 -3 37 -1 42 18 42 19 0 21 -5 18 -42z" fill="#6E9EF9"/>
<path d="M1734 1490 c-12 -5 -24 -16 -28 -26 -8 -22 19 -64 43 -64 23 0 54 34
49 56 -5 25 -39 44 -64 34z m26 -40 c0 -5 -4 -10 -10 -10 -5 0 -10 5 -10 10 0
6 5 10 10 10 6 0 10 -4 10 -10z" fill="#6E9EF9"/>
<path d="M1271 1468 c-15 -41 14 -74 54 -64 29 7 43 49 25 71 -20 24 -69 19
-79 -7z m49 -18 c0 -5 -4 -10 -10 -10 -5 0 -10 5 -10 10 0 6 5 10 10 10 6 0
10 -4 10 -10z" fill="#6E9EF9"/>
</g>
</svg>
