<?xml version="1.0" standalone="no"?>
<!DOCTYPE svg PUBLIC "-//W3C//DTD SVG 20010904//EN"
 "http://www.w3.org/TR/2001/REC-SVG-20010904/DTD/svg10.dtd">
<svg width="181" height="106" viewBox="0 0 181 106" fill="none" xmlns="http://www.w3.org/2000/svg">
<path d="M23.0308 1.42751C16.3992 4.83804 13.0834 10.5222 13.0834 18.1959V23.3117L8.72552 25.5854C0.672891 29.7538 0.767628 29.4696 0.767628 68.5959C0.767628 93.9854 1.05184 103.08 1.90447 103.933C3.51499 105.543 24.5466 105.543 26.1571 103.933C26.8202 103.27 27.2939 101.849 27.2939 100.617V98.438H90.7676H154.241V100.617C154.241 101.849 154.715 103.27 155.378 103.933C156.989 105.543 178.02 105.543 179.631 103.933C180.483 103.08 180.768 93.9854 180.768 68.5959C180.768 29.4696 180.862 29.7538 172.81 25.5854L168.452 23.3117V18.0065C168.452 11.5644 166.462 7.20646 161.536 3.32225L157.841 0.385406L91.9044 0.101196C33.3571 -0.0882721 25.5887 0.101196 23.0308 1.42751ZM158.978 4.93278C163.241 7.77488 165.61 12.038 166.273 18.1959L166.746 23.217L162.294 25.5854C155.757 28.9012 154.241 32.217 154.241 43.6801V52.8696L150.925 51.4485C148.368 50.4064 142.494 50.1222 124.115 50.1222C98.157 50.1222 95.6939 50.4064 92.5676 53.2485C90.7676 54.9538 90.4834 54.9538 89.6307 53.6275C88.1149 50.7854 82.0518 50.1222 58.0834 50.1222C40.7466 50.217 33.4518 50.5012 30.8939 51.4485L27.2939 52.7749V43.5854C27.2939 32.3117 25.7781 28.7117 19.9992 25.9643L16.0203 24.0696L15.9255 18.3854C15.9255 11.7538 18.0097 7.5854 22.7466 4.64857C25.7781 2.84856 27.6729 2.75383 90.8623 2.75383H155.852L158.978 4.93278ZM19.5255 28.617C24.2624 30.8907 24.4518 32.4064 24.4518 68.5959V102.227H14.0308H3.60973V68.1222V34.1117L6.45184 30.7959C10.336 26.438 13.936 25.7749 19.5255 28.617ZM174.704 30.6064L177.925 33.8275V68.0275V102.227H167.504H157.083V68.0275V33.8275L160.304 30.6064C162.957 27.9538 164.283 27.3854 167.504 27.3854C170.725 27.3854 172.052 27.9538 174.704 30.6064ZM85.4623 54.0064C88.9676 55.617 89.9149 59.1222 89.6307 69.1643L89.3465 78.0696L58.3676 78.3538L27.2939 78.5433V68.5012C27.2939 57.8906 28.0518 55.238 31.3676 53.9117C34.5887 52.6801 82.6202 52.7749 85.4623 54.0064ZM152.441 55.7117C153.957 57.6064 154.241 59.5012 154.241 68.217V78.5433L123.262 78.3538L92.1886 78.0696V67.838C92.1886 57.7012 92.1886 57.5117 94.936 55.238L97.5886 52.8696L124.115 53.1538L150.641 53.438L152.441 55.7117ZM154.241 88.4906V95.5959H90.7676H27.2939V88.4906V81.3854H90.7676H154.241V88.4906Z" fill="#6E9EF9"/>
</svg>
