<svg width="180" height="166" viewBox="0 0 180 166" fill="none" xmlns="http://www.w3.org/2000/svg">
    <path d="M18.2653 0.446732C13.6531 1.3651 9.81633 4.89572 8.2449 9.63042C7.87755 10.6916 7.85714 12.0386 7.79592 32.5284L7.73469 54.3243H4.36735C1.06122 54.3243 1 54.3243 0.510204 54.8345L0 55.3243V109.732V164.141L0.510204 164.63L1 165.141H9.44898C17.4694 165.141 17.9388 165.12 18.3878 164.753L18.8776 164.365L18.9388 157.304L19 150.243H90H161.02V156.977C161.02 164.059 161.102 164.692 161.939 165.018C162.122 165.079 166.041 165.141 170.633 165.141H179L179.49 164.63L180 164.141V109.732V55.3243L179.49 54.8345L179 54.3243H170.551C162.531 54.3243 162.061 54.3447 161.612 54.712L161.122 55.0998L161.02 63.8549L160.918 72.5896H90H19.0816L18.9796 63.8753C18.8776 55.8549 18.8571 55.1202 18.5102 54.7937C18.2041 54.4876 17.6531 54.4059 14.6327 54.3243L11.1224 54.2223L11.0612 34.0182C11.0204 21.0182 11.0816 13.2222 11.2245 12.1814C11.7551 7.93654 14.9796 4.46715 19.0612 3.73245C19.8571 3.5896 24.6531 3.50797 32.7347 3.50797C46.449 3.50797 46.6939 3.52837 49 4.75285C50.449 5.52837 52.2041 7.3447 52.9592 8.83449C53.9796 10.8141 54.0816 11.5692 54.0816 17.2222C54.0816 20.6916 54.1633 22.6508 54.3061 22.9774C54.7551 23.9365 56.102 24.1202 57 23.3447C57.3061 23.059 57.3469 22.508 57.3469 17.2018C57.3469 10.5896 57.2653 9.99776 55.898 7.22224C54.7551 4.89572 52.7959 2.91612 50.4082 1.71204C47.4898 0.242661 47.5306 0.242661 32.449 0.263062C25.102 0.283478 18.7143 0.365097 18.2653 0.446732ZM15.6735 109.671L15.6122 161.773H9.4898H3.36735L3.30612 109.671L3.26531 57.5896H9.4898H15.7143L15.6735 109.671ZM176.694 109.671L176.633 161.773H170.51H164.388L164.327 109.937C164.306 81.4263 164.327 57.9773 164.388 57.8345C164.449 57.6508 165.898 57.5896 170.612 57.5896H176.735L176.694 109.671ZM161.02 77.8957V79.8345H90H18.9796V77.8957V75.9569H90H161.02V77.8957ZM33.2245 107.732L33.2653 132.283H26.1224H18.9796V107.692V83.0998L26.0816 83.1406L33.1633 83.2018L33.2245 107.732ZM51.4898 107.753L51.5306 132.283H44.0408H36.5306V107.692V83.0998L43.9796 83.1406L51.4286 83.2018L51.4898 107.753ZM69.9592 107.732L70 132.283H62.449H54.898V107.692V83.0998L62.4082 83.1406L69.898 83.2018L69.9592 107.732ZM88.3265 107.732L88.3673 132.283H80.8163H73.2653V107.692V83.0998L80.7755 83.1406L88.2653 83.2018L88.3265 107.732ZM106.694 107.732L106.735 132.283H99.1837H91.6327V107.834C91.6327 94.3855 91.6939 83.3039 91.7755 83.2427C91.8571 83.161 95.2245 83.1202 99.2653 83.1406L106.633 83.2018L106.694 107.732ZM125.102 107.692V132.283H117.551H110V107.834C110 94.3855 110.061 83.3039 110.143 83.2427C110.204 83.161 113.612 83.0998 117.694 83.0998H125.102V107.692ZM143.469 107.692V132.283H135.918H128.367V107.834C128.367 94.3855 128.429 83.3039 128.51 83.2427C128.571 83.161 131.98 83.0998 136.061 83.0998H143.469V107.692ZM161.02 107.692V132.283H153.878H146.735V107.834C146.735 94.3855 146.796 83.3039 146.878 83.2427C146.939 83.161 150.163 83.0998 154.02 83.0998H161.02V107.692ZM161.02 141.365V146.977H90H18.9796V141.365V135.753H90H161.02V141.365Z" fill="#6E9EF9"/>
    <path d="M54.8572 27.3656C54.5715 27.5901 53.2042 29.6921 51.8164 32.0391L49.3062 36.3044L44.5919 37.386C42.0205 37.9779 39.694 38.5697 39.4287 38.6921C38.7756 38.9779 38.3879 39.7942 38.5919 40.5085C38.6736 40.8146 40.1021 42.6513 41.7756 44.5901C43.4287 46.5289 44.9185 48.2636 45.0613 48.4472C45.2858 48.733 45.2654 49.5289 44.9185 53.2023C44.6736 55.6309 44.4899 58.0187 44.4899 58.5289C44.4899 59.6309 45.0001 60.2432 45.9797 60.2432C46.347 60.2432 48.5511 59.4268 51.2042 58.284L55.7552 56.3248L60.2858 58.284C64.694 60.2023 65.5511 60.4472 66.3266 60.0391C67.0613 59.6513 67.1021 58.9166 66.6328 53.7126L66.1838 48.7126L69.4695 44.8758C71.2654 42.7738 72.8164 40.8554 72.8981 40.6309C73.1021 40.0799 72.9185 39.3452 72.4695 38.937C72.2654 38.7534 69.9185 38.1003 67.245 37.4677C64.5511 36.8554 62.3062 36.3044 62.2246 36.2432C62.143 36.2023 60.9389 34.2228 59.5715 31.8554C56.6532 26.8962 56.1226 26.386 54.8572 27.3656ZM57.4695 34.8758C58.3879 36.4268 59.2858 37.9779 59.4899 38.3452C59.9797 39.1819 60.1634 39.2432 64.4899 40.2636C66.4491 40.7126 68.1021 41.1207 68.1226 41.1615C68.1634 41.2023 67.0001 42.6309 65.5307 44.3656C62.4695 47.9574 62.694 47.1411 63.1838 52.3248C63.347 54.2432 63.4491 55.835 63.4083 55.8758C63.3675 55.937 61.7144 55.284 59.7348 54.4268C57.7756 53.5901 55.9797 52.8962 55.7552 52.8962C55.5307 52.8962 53.7144 53.5901 51.7348 54.4472C49.7552 55.284 48.0817 55.9574 48.0409 55.9166C48.0001 55.8758 48.143 54.0799 48.3674 51.9166C48.5919 49.7534 48.694 47.835 48.6328 47.6309C48.4899 47.284 43.7756 41.6921 43.3879 41.4268C43.2654 41.3452 43.2246 41.2432 43.2654 41.1819C43.3266 41.1411 45.0205 40.7126 47.0409 40.2432C49.0409 39.7738 50.8981 39.284 51.1226 39.1819C51.3879 39.0595 52.4287 37.5289 53.5919 35.5493C54.694 33.6513 55.6532 32.1003 55.7144 32.1003C55.7756 32.0799 56.5715 33.3452 57.4695 34.8758Z" fill="#6E9EF9"/>
</svg>