<svg width="100" height="100" viewBox="0 0 100 100" fill="none" xmlns="http://www.w3.org/2000/svg">
    <rect width="100" height="100" fill="#E85A4F"/>
    <path d="M42.8752 16.0832L7.58354 74.9999C6.85591 76.26 6.4709 77.6886 6.46683 79.1437C6.46276 80.5988 6.83975 82.0296 7.56032 83.2937C8.28088 84.5579 9.3199 85.6113 10.574 86.3493C11.8281 87.0872 13.2535 87.4839 14.7085 87.4999H85.2919C86.7469 87.4839 88.1723 87.0872 89.4264 86.3493C90.6805 85.6113 91.7195 84.5579 92.4401 83.2937C93.1607 82.0296 93.5377 80.5988 93.5336 79.1437C93.5295 77.6886 93.1445 76.26 92.4169 74.9999L57.1252 16.0832C56.3824 14.8587 55.3365 13.8462 54.0885 13.1436C52.8405 12.4409 51.4324 12.0718 50.0002 12.0718C48.568 12.0718 47.1599 12.4409 45.9119 13.1436C44.6639 13.8462 43.618 14.8587 42.8752 16.0832Z" stroke="#EBEBEB" stroke-width="5" stroke-linecap="round" stroke-linejoin="round"/>
    <path d="M50 37.5V54.1667" stroke="#EBEBEB" stroke-width="5" stroke-linecap="round" stroke-linejoin="round"/>
    <path d="M50 70.8335H50.0417" stroke="#EBEBEB" stroke-width="5" stroke-linecap="round" stroke-linejoin="round"/>
</svg>