<?xml version="1.0" standalone="no"?>
<!DOCTYPE svg PUBLIC "-//W3C//DTD SVG 20010904//EN"
        "http://www.w3.org/TR/2001/REC-SVG-20010904/DTD/svg10.dtd">
<svg version="1.0" xmlns="http://www.w3.org/2000/svg"
     width="512.000000pt" height="512.000000pt" viewBox="0 0 512.000000 512.000000"
     preserveAspectRatio="xMidYMid meet">

    <g transform="translate(0.000000,512.000000) scale(0.100000,-0.100000)"
       fill="#6E9EF9">
        <path d="M2850 5105 c-200 -22 -368 -70 -522 -148 -398 -202 -623 -546 -708
-1082 -27 -166 -37 -548 -21 -797 6 -107 27 -279 52 -430 46 -287 58 -423 40
-456 -10 -19 -20 -22 -69 -22 -93 0 -148 44 -198 156 -59 133 -92 413 -76 643
11 155 5 187 -43 230 -43 37 -90 47 -163 32 -85 -17 -157 -56 -234 -129 -117
-110 -207 -262 -278 -468 -67 -194 -90 -329 -97 -549 -9 -334 46 -600 186
-898 291 -619 856 -1047 1536 -1164 138 -23 460 -23 605 1 353 58 634 177 925
391 101 74 312 285 392 391 280 371 425 816 410 1262 -6 183 -19 259 -73 421
-89 267 -240 506 -468 740 -123 125 -219 203 -406 328 -222 149 -355 294 -446
486 -61 130 -77 212 -77 387 0 177 14 245 83 406 47 111 52 164 17 215 -47 71
-118 82 -367 54z m10 -313 c0 -4 -9 -48 -20 -98 -33 -142 -37 -342 -11 -486
49 -271 173 -494 388 -698 93 -88 128 -114 353 -270 367 -253 640 -647 705
-1019 29 -166 15 -411 -36 -614 -146 -583 -599 -1054 -1182 -1231 -470 -143
-966 -77 -1394 185 -582 356 -913 1044 -817 1698 28 191 107 423 177 516 15
20 15 20 21 -5 2 -14 7 -70 10 -126 5 -111 35 -273 68 -368 63 -185 157 -299
303 -367 59 -28 82 -33 169 -37 164 -7 273 39 342 142 78 119 81 250 14 661
-50 308 -64 500 -57 810 7 317 37 504 110 690 112 281 317 478 590 570 131 44
267 68 267 47z"/>
    </g>
</svg>
